<mxfile host="app.diagrams.net" agent="Mozilla/5.0 (Windows NT 10.0; Win64; x64) AppleWebKit/537.36 (KHTML, like Gecko) Chrome/135.0.0.0 Safari/537.36" version="26.3.0">
  <diagram id="C5RBs43oDa-KdzZeNtuy" name="Page-1">
    <mxGraphModel dx="3285" dy="1269" grid="1" gridSize="10" guides="1" tooltips="1" connect="1" arrows="1" fold="1" page="1" pageScale="1" pageWidth="827" pageHeight="1169" math="0" shadow="0">
      <root>
        <mxCell id="WIyWlLk6GJQsqaUBKTNV-0" />
        <mxCell id="WIyWlLk6GJQsqaUBKTNV-1" parent="WIyWlLk6GJQsqaUBKTNV-0" />
        <mxCell id="bAVuv0y_ngJYr-Cw_Y14-153" value="&lt;font style=&quot;font-size: 45px;&quot; face=&quot;Garamond&quot;&gt;&lt;b style=&quot;&quot;&gt;VS Code&lt;/b&gt;&lt;/font&gt;" style="rounded=1;whiteSpace=wrap;html=1;align=left;fillColor=#f5f5f5;gradientColor=#b3b3b3;strokeColor=#666666;verticalAlign=top;spacingTop=29;spacingLeft=95;" vertex="1" parent="WIyWlLk6GJQsqaUBKTNV-1">
          <mxGeometry x="-760" y="120" width="1240" height="1049" as="geometry" />
        </mxCell>
        <mxCell id="bAVuv0y_ngJYr-Cw_Y14-150" value="&lt;font style=&quot;font-size: 45px;&quot; face=&quot;Garamond&quot;&gt;&lt;b style=&quot;&quot;&gt;GitHub&lt;/b&gt;&lt;/font&gt;" style="rounded=1;whiteSpace=wrap;html=1;align=left;fillColor=#f5f5f5;gradientColor=#b3b3b3;strokeColor=#666666;verticalAlign=top;spacingTop=29;spacingLeft=95;" vertex="1" parent="WIyWlLk6GJQsqaUBKTNV-1">
          <mxGeometry x="-760" y="1200" width="1240" height="780" as="geometry" />
        </mxCell>
        <mxCell id="bAVuv0y_ngJYr-Cw_Y14-127" style="edgeStyle=orthogonalEdgeStyle;rounded=0;orthogonalLoop=1;jettySize=auto;html=1;exitX=0.5;exitY=1;exitDx=0;exitDy=0;entryX=0.5;entryY=0;entryDx=0;entryDy=0;strokeWidth=6;" edge="1" parent="WIyWlLk6GJQsqaUBKTNV-1" source="WIyWlLk6GJQsqaUBKTNV-7" target="bAVuv0y_ngJYr-Cw_Y14-97">
          <mxGeometry relative="1" as="geometry" />
        </mxCell>
        <mxCell id="WIyWlLk6GJQsqaUBKTNV-7" value="&lt;font face=&quot;Garamond&quot; style=&quot;font-size: 22px;&quot;&gt;&lt;b&gt;Dev Branch (1)&lt;/b&gt;&lt;/font&gt;" style="rounded=1;whiteSpace=wrap;html=1;fontSize=12;glass=0;strokeWidth=1;shadow=0;fillColor=#dae8fc;strokeColor=#6c8ebf;textShadow=1;gradientColor=#7ea6e0;" parent="WIyWlLk6GJQsqaUBKTNV-1" vertex="1">
          <mxGeometry x="-185" y="483.25" width="390" height="98.75" as="geometry" />
        </mxCell>
        <mxCell id="bAVuv0y_ngJYr-Cw_Y14-126" style="edgeStyle=orthogonalEdgeStyle;rounded=0;orthogonalLoop=1;jettySize=auto;html=1;exitX=0.5;exitY=1;exitDx=0;exitDy=0;entryX=0.5;entryY=0;entryDx=0;entryDy=0;strokeWidth=6;" edge="1" parent="WIyWlLk6GJQsqaUBKTNV-1" source="bAVuv0y_ngJYr-Cw_Y14-96" target="WIyWlLk6GJQsqaUBKTNV-7">
          <mxGeometry relative="1" as="geometry" />
        </mxCell>
        <mxCell id="bAVuv0y_ngJYr-Cw_Y14-96" value="&lt;b&gt;&lt;font style=&quot;font-size: 22px;&quot;&gt;Action:&amp;nbsp;&lt;/font&gt;&lt;/b&gt;&lt;div&gt;&lt;font style=&quot;font-size: 22px;&quot;&gt;Create a new branch in VS Code&lt;/font&gt;&lt;/div&gt;" style="shape=step;perimeter=stepPerimeter;whiteSpace=wrap;html=1;fixedSize=1;fillColor=#d5e8d4;gradientColor=light-dark(#58833f, #295a0d);strokeColor=#82b366;fontFamily=Garamond;fontSize=17;size=30;align=center;fontStyle=0" vertex="1" parent="WIyWlLk6GJQsqaUBKTNV-1">
          <mxGeometry x="-170" y="333" width="360" height="80" as="geometry" />
        </mxCell>
        <mxCell id="bAVuv0y_ngJYr-Cw_Y14-117" style="edgeStyle=orthogonalEdgeStyle;rounded=0;orthogonalLoop=1;jettySize=auto;html=1;exitX=0.5;exitY=1;exitDx=0;exitDy=0;strokeWidth=6;" edge="1" parent="WIyWlLk6GJQsqaUBKTNV-1" source="bAVuv0y_ngJYr-Cw_Y14-97" target="bAVuv0y_ngJYr-Cw_Y14-129">
          <mxGeometry relative="1" as="geometry">
            <mxPoint x="10" y="790.0000000000002" as="targetPoint" />
            <Array as="points" />
          </mxGeometry>
        </mxCell>
        <mxCell id="bAVuv0y_ngJYr-Cw_Y14-97" value="&lt;b&gt;&lt;font style=&quot;font-size: 22px;&quot;&gt;Action:&amp;nbsp;&lt;/font&gt;&lt;/b&gt;&lt;div&gt;&lt;font style=&quot;font-size: 22px;&quot;&gt;Edit the code,&amp;nbsp;&lt;/font&gt;&lt;span style=&quot;font-size: 22px; background-color: transparent; color: light-dark(rgb(0, 0, 0), rgb(255, 255, 255));&quot;&gt;save &amp;amp; commit&lt;/span&gt;&lt;/div&gt;" style="shape=step;perimeter=stepPerimeter;whiteSpace=wrap;html=1;fixedSize=1;fillColor=#d5e8d4;gradientColor=light-dark(#58833f, #295a0d);strokeColor=#82b366;fontFamily=Garamond;fontSize=17;size=30;align=center;fontStyle=0" vertex="1" parent="WIyWlLk6GJQsqaUBKTNV-1">
          <mxGeometry x="-170" y="652.5" width="360" height="80" as="geometry" />
        </mxCell>
        <mxCell id="bAVuv0y_ngJYr-Cw_Y14-108" style="edgeStyle=orthogonalEdgeStyle;rounded=0;orthogonalLoop=1;jettySize=auto;html=1;exitX=0.5;exitY=1;exitDx=0;exitDy=0;entryX=0.5;entryY=0;entryDx=0;entryDy=0;strokeWidth=6;" edge="1" parent="WIyWlLk6GJQsqaUBKTNV-1" source="bAVuv0y_ngJYr-Cw_Y14-148" target="bAVuv0y_ngJYr-Cw_Y14-107">
          <mxGeometry relative="1" as="geometry">
            <mxPoint x="10" y="1341" as="sourcePoint" />
          </mxGeometry>
        </mxCell>
        <mxCell id="bAVuv0y_ngJYr-Cw_Y14-149" style="edgeStyle=orthogonalEdgeStyle;rounded=0;orthogonalLoop=1;jettySize=auto;html=1;exitX=0.5;exitY=1;exitDx=0;exitDy=0;entryX=0.5;entryY=0;entryDx=0;entryDy=0;fontSize=28;fontStyle=1;strokeWidth=6;" edge="1" parent="WIyWlLk6GJQsqaUBKTNV-1" source="bAVuv0y_ngJYr-Cw_Y14-99" target="bAVuv0y_ngJYr-Cw_Y14-148">
          <mxGeometry relative="1" as="geometry" />
        </mxCell>
        <mxCell id="bAVuv0y_ngJYr-Cw_Y14-99" value="&lt;b&gt;&lt;font style=&quot;font-size: 22px;&quot;&gt;Action:&amp;nbsp;&lt;/font&gt;&lt;/b&gt;&lt;div&gt;&lt;font style=&quot;font-size: 22px;&quot;&gt;Push branch&amp;nbsp;&lt;/font&gt;&lt;/div&gt;" style="shape=step;perimeter=stepPerimeter;whiteSpace=wrap;html=1;fixedSize=1;fillColor=#d5e8d4;gradientColor=light-dark(#58833f, #295a0d);strokeColor=#82b366;fontFamily=Garamond;fontSize=17;size=30;align=center;fontStyle=0" vertex="1" parent="WIyWlLk6GJQsqaUBKTNV-1">
          <mxGeometry x="-170" y="1065" width="360" height="80" as="geometry" />
        </mxCell>
        <mxCell id="bAVuv0y_ngJYr-Cw_Y14-116" style="edgeStyle=orthogonalEdgeStyle;rounded=0;orthogonalLoop=1;jettySize=auto;html=1;exitX=0.5;exitY=1;exitDx=0;exitDy=0;strokeWidth=6;" edge="1" parent="WIyWlLk6GJQsqaUBKTNV-1" source="bAVuv0y_ngJYr-Cw_Y14-107" target="bAVuv0y_ngJYr-Cw_Y14-132">
          <mxGeometry relative="1" as="geometry">
            <mxPoint x="9" y="1554" as="targetPoint" />
          </mxGeometry>
        </mxCell>
        <mxCell id="bAVuv0y_ngJYr-Cw_Y14-107" value="&lt;b&gt;&lt;font style=&quot;font-size: 22px;&quot;&gt;Action:&amp;nbsp;&lt;/font&gt;&lt;/b&gt;&lt;div&gt;&lt;span style=&quot;background-color: transparent; color: light-dark(rgb(0, 0, 0), rgb(255, 255, 255));&quot;&gt;&lt;font style=&quot;font-size: 22px;&quot;&gt;Review the changes&lt;/font&gt;&lt;/span&gt;&lt;span style=&quot;background-color: transparent; color: light-dark(rgb(0, 0, 0), rgb(255, 255, 255));&quot;&gt;&lt;font style=&quot;font-size: 22px;&quot;&gt;&amp;nbsp;&lt;/font&gt;&lt;/span&gt;&lt;span style=&quot;background-color: transparent; color: light-dark(rgb(0, 0, 0), rgb(255, 255, 255)); font-size: 22px;&quot;&gt;in&amp;nbsp;&lt;/span&gt;&lt;/div&gt;&lt;div&gt;&lt;span style=&quot;background-color: transparent; color: light-dark(rgb(0, 0, 0), rgb(255, 255, 255)); font-size: 22px;&quot;&gt;Branches Tab&lt;/span&gt;&lt;/div&gt;" style="shape=step;perimeter=stepPerimeter;whiteSpace=wrap;html=1;fixedSize=1;fillColor=#d5e8d4;gradientColor=light-dark(#58833f, #295a0d);strokeColor=#82b366;fontFamily=Garamond;fontSize=17;size=30;align=center;fontStyle=0" vertex="1" parent="WIyWlLk6GJQsqaUBKTNV-1">
          <mxGeometry x="-170" y="1413" width="360" height="80" as="geometry" />
        </mxCell>
        <mxCell id="bAVuv0y_ngJYr-Cw_Y14-125" style="edgeStyle=orthogonalEdgeStyle;rounded=0;orthogonalLoop=1;jettySize=auto;html=1;exitX=0.5;exitY=1;exitDx=0;exitDy=0;entryX=0.5;entryY=0;entryDx=0;entryDy=0;strokeWidth=6;" edge="1" parent="WIyWlLk6GJQsqaUBKTNV-1" source="bAVuv0y_ngJYr-Cw_Y14-112" target="bAVuv0y_ngJYr-Cw_Y14-96">
          <mxGeometry relative="1" as="geometry" />
        </mxCell>
        <mxCell id="bAVuv0y_ngJYr-Cw_Y14-112" value="&lt;font face=&quot;Garamond&quot; style=&quot;font-size: 22px;&quot;&gt;&lt;b&gt;Main Branch (0)&lt;/b&gt;&lt;/font&gt;" style="rounded=1;whiteSpace=wrap;html=1;fontSize=12;glass=0;strokeWidth=1;shadow=0;fillColor=#dae8fc;strokeColor=#6c8ebf;textShadow=1;gradientColor=#7ea6e0;" vertex="1" parent="WIyWlLk6GJQsqaUBKTNV-1">
          <mxGeometry x="-185" y="170" width="390" height="98.75" as="geometry" />
        </mxCell>
        <mxCell id="bAVuv0y_ngJYr-Cw_Y14-124" style="edgeStyle=orthogonalEdgeStyle;rounded=0;orthogonalLoop=1;jettySize=auto;html=1;exitX=1;exitY=0.5;exitDx=0;exitDy=0;entryX=1;entryY=0.5;entryDx=0;entryDy=0;strokeWidth=6;" edge="1" parent="WIyWlLk6GJQsqaUBKTNV-1" source="bAVuv0y_ngJYr-Cw_Y14-118" target="bAVuv0y_ngJYr-Cw_Y14-112">
          <mxGeometry relative="1" as="geometry">
            <Array as="points">
              <mxPoint x="390" y="1876" />
              <mxPoint x="390" y="219" />
            </Array>
          </mxGeometry>
        </mxCell>
        <mxCell id="bAVuv0y_ngJYr-Cw_Y14-118" value="&lt;b&gt;&lt;font style=&quot;font-size: 22px;&quot;&gt;Action:&amp;nbsp;&lt;/font&gt;&lt;/b&gt;&lt;div&gt;&lt;span style=&quot;background-color: transparent; color: light-dark(rgb(0, 0, 0), rgb(255, 255, 255));&quot;&gt;&lt;font style=&quot;font-size: 22px;&quot;&gt;Merge Pull Request to&amp;nbsp;&lt;/font&gt;&lt;/span&gt;&lt;/div&gt;&lt;div&gt;&lt;span style=&quot;background-color: transparent; color: light-dark(rgb(0, 0, 0), rgb(255, 255, 255));&quot;&gt;&lt;font style=&quot;font-size: 22px;&quot;&gt;Main Branch (0)&amp;nbsp;&lt;/font&gt;&lt;/span&gt;&lt;span style=&quot;font-size: 22px; background-color: transparent; color: light-dark(rgb(0, 0, 0), rgb(255, 255, 255));&quot;&gt;on GitHub&lt;/span&gt;&lt;/div&gt;" style="shape=step;perimeter=stepPerimeter;whiteSpace=wrap;html=1;fixedSize=1;fillColor=#d5e8d4;gradientColor=light-dark(#58833f, #295a0d);strokeColor=#82b366;fontFamily=Garamond;fontSize=17;size=30;align=center;fontStyle=0" vertex="1" parent="WIyWlLk6GJQsqaUBKTNV-1">
          <mxGeometry x="-171" y="1836" width="360" height="80" as="geometry" />
        </mxCell>
        <mxCell id="bAVuv0y_ngJYr-Cw_Y14-134" style="edgeStyle=orthogonalEdgeStyle;rounded=0;orthogonalLoop=1;jettySize=auto;html=1;exitX=0.5;exitY=1;exitDx=0;exitDy=0;entryX=0.5;entryY=0;entryDx=0;entryDy=0;strokeWidth=6;" edge="1" parent="WIyWlLk6GJQsqaUBKTNV-1" source="bAVuv0y_ngJYr-Cw_Y14-129" target="bAVuv0y_ngJYr-Cw_Y14-99">
          <mxGeometry relative="1" as="geometry" />
        </mxCell>
        <mxCell id="bAVuv0y_ngJYr-Cw_Y14-136" value="&lt;font style=&quot;font-size: 28px;&quot; face=&quot;Garamond&quot;&gt;&lt;b&gt;YES&lt;/b&gt;&lt;/font&gt;" style="edgeLabel;html=1;align=center;verticalAlign=middle;resizable=0;points=[];" vertex="1" connectable="0" parent="bAVuv0y_ngJYr-Cw_Y14-134">
          <mxGeometry x="-0.144" y="4" relative="1" as="geometry">
            <mxPoint as="offset" />
          </mxGeometry>
        </mxCell>
        <mxCell id="bAVuv0y_ngJYr-Cw_Y14-138" style="edgeStyle=orthogonalEdgeStyle;rounded=0;orthogonalLoop=1;jettySize=auto;html=1;exitX=0;exitY=0.5;exitDx=0;exitDy=0;entryX=0;entryY=0.5;entryDx=0;entryDy=0;strokeWidth=6;" edge="1" parent="WIyWlLk6GJQsqaUBKTNV-1" source="bAVuv0y_ngJYr-Cw_Y14-129" target="bAVuv0y_ngJYr-Cw_Y14-97">
          <mxGeometry relative="1" as="geometry">
            <Array as="points">
              <mxPoint x="-310" y="880" />
              <mxPoint x="-310" y="693" />
            </Array>
          </mxGeometry>
        </mxCell>
        <mxCell id="bAVuv0y_ngJYr-Cw_Y14-139" value="&lt;b&gt;&lt;font style=&quot;font-size: 28px;&quot; face=&quot;Garamond&quot;&gt;NO&lt;/font&gt;&lt;/b&gt;" style="edgeLabel;html=1;align=center;verticalAlign=middle;resizable=0;points=[];" vertex="1" connectable="0" parent="bAVuv0y_ngJYr-Cw_Y14-138">
          <mxGeometry x="-0.6819" y="-2" relative="1" as="geometry">
            <mxPoint x="1" as="offset" />
          </mxGeometry>
        </mxCell>
        <mxCell id="bAVuv0y_ngJYr-Cw_Y14-129" value="&lt;font style=&quot;font-size: 22px;&quot; face=&quot;Garamond&quot;&gt;&lt;b style=&quot;&quot;&gt;Are you satisfied&amp;nbsp;&lt;/b&gt;&lt;/font&gt;&lt;div&gt;&lt;font style=&quot;font-size: 22px;&quot; face=&quot;Garamond&quot;&gt;&lt;b style=&quot;&quot;&gt;with the code?&lt;/b&gt;&lt;/font&gt;&lt;/div&gt;" style="rhombus;whiteSpace=wrap;html=1;fillColor=#f8cecc;gradientColor=#ea6b66;strokeColor=#b85450;" vertex="1" parent="WIyWlLk6GJQsqaUBKTNV-1">
          <mxGeometry x="-148.5" y="810" width="315" height="140" as="geometry" />
        </mxCell>
        <mxCell id="bAVuv0y_ngJYr-Cw_Y14-133" style="edgeStyle=orthogonalEdgeStyle;rounded=0;orthogonalLoop=1;jettySize=auto;html=1;exitX=0.5;exitY=1;exitDx=0;exitDy=0;strokeWidth=6;entryX=0.5;entryY=0;entryDx=0;entryDy=0;" edge="1" parent="WIyWlLk6GJQsqaUBKTNV-1" source="bAVuv0y_ngJYr-Cw_Y14-132" target="bAVuv0y_ngJYr-Cw_Y14-118">
          <mxGeometry relative="1" as="geometry">
            <mxPoint x="9" y="1796" as="targetPoint" />
          </mxGeometry>
        </mxCell>
        <mxCell id="bAVuv0y_ngJYr-Cw_Y14-137" value="&lt;b&gt;&lt;font style=&quot;font-size: 28px;&quot; face=&quot;Garamond&quot;&gt;YES&lt;/font&gt;&lt;/b&gt;" style="edgeLabel;html=1;align=center;verticalAlign=middle;resizable=0;points=[];" vertex="1" connectable="0" parent="bAVuv0y_ngJYr-Cw_Y14-133">
          <mxGeometry x="-0.1966" y="-1" relative="1" as="geometry">
            <mxPoint as="offset" />
          </mxGeometry>
        </mxCell>
        <mxCell id="bAVuv0y_ngJYr-Cw_Y14-142" style="edgeStyle=orthogonalEdgeStyle;rounded=0;orthogonalLoop=1;jettySize=auto;html=1;exitX=0;exitY=0.5;exitDx=0;exitDy=0;entryX=1;entryY=0.5;entryDx=0;entryDy=0;strokeWidth=6;" edge="1" parent="WIyWlLk6GJQsqaUBKTNV-1" source="bAVuv0y_ngJYr-Cw_Y14-132" target="bAVuv0y_ngJYr-Cw_Y14-141">
          <mxGeometry relative="1" as="geometry" />
        </mxCell>
        <mxCell id="bAVuv0y_ngJYr-Cw_Y14-143" value="&lt;b&gt;&lt;font face=&quot;Garamond&quot; style=&quot;font-size: 28px;&quot;&gt;NO&lt;/font&gt;&lt;/b&gt;" style="edgeLabel;html=1;align=center;verticalAlign=middle;resizable=0;points=[];" vertex="1" connectable="0" parent="bAVuv0y_ngJYr-Cw_Y14-142">
          <mxGeometry x="0.0506" y="5" relative="1" as="geometry">
            <mxPoint x="14" y="-5" as="offset" />
          </mxGeometry>
        </mxCell>
        <mxCell id="bAVuv0y_ngJYr-Cw_Y14-132" value="&lt;font face=&quot;Garamond&quot;&gt;&lt;span style=&quot;font-size: 22px;&quot;&gt;&lt;b&gt;Is the code tested?&amp;nbsp;&lt;/b&gt;&lt;/span&gt;&lt;/font&gt;&lt;div&gt;&lt;font face=&quot;Garamond&quot;&gt;&lt;span style=&quot;font-size: 22px;&quot;&gt;&lt;b&gt;Does it work, b&lt;/b&gt;&lt;/span&gt;&lt;/font&gt;&lt;b style=&quot;font-size: 22px; font-family: Garamond; background-color: transparent; color: light-dark(rgb(0, 0, 0), rgb(255, 255, 255));&quot;&gt;ug free?&lt;/b&gt;&lt;/div&gt;" style="rhombus;whiteSpace=wrap;html=1;fillColor=#f8cecc;gradientColor=#ea6b66;strokeColor=#b85450;" vertex="1" parent="WIyWlLk6GJQsqaUBKTNV-1">
          <mxGeometry x="-148.5" y="1571" width="315" height="140" as="geometry" />
        </mxCell>
        <mxCell id="bAVuv0y_ngJYr-Cw_Y14-144" style="edgeStyle=orthogonalEdgeStyle;rounded=0;orthogonalLoop=1;jettySize=auto;html=1;exitX=0;exitY=0.5;exitDx=0;exitDy=0;entryX=0;entryY=0.5;entryDx=0;entryDy=0;strokeWidth=6;" edge="1" parent="WIyWlLk6GJQsqaUBKTNV-1" source="bAVuv0y_ngJYr-Cw_Y14-141" target="bAVuv0y_ngJYr-Cw_Y14-97">
          <mxGeometry relative="1" as="geometry">
            <Array as="points">
              <mxPoint x="-720" y="1641" />
              <mxPoint x="-720" y="693" />
            </Array>
          </mxGeometry>
        </mxCell>
        <mxCell id="bAVuv0y_ngJYr-Cw_Y14-141" value="&lt;b&gt;&lt;font style=&quot;font-size: 22px;&quot;&gt;Action:&amp;nbsp;&lt;/font&gt;&lt;/b&gt;&lt;div&gt;&lt;span style=&quot;font-size: 22px;&quot;&gt;Share feedback to edit the code&amp;nbsp;&lt;/span&gt;&lt;/div&gt;&lt;div&gt;&lt;span style=&quot;font-size: 22px;&quot;&gt;based on new suggestions&lt;/span&gt;&lt;/div&gt;" style="shape=step;perimeter=stepPerimeter;whiteSpace=wrap;html=1;fixedSize=1;fillColor=#d5e8d4;gradientColor=light-dark(#58833f, #295a0d);strokeColor=#82b366;fontFamily=Garamond;fontSize=17;size=30;align=center;fontStyle=0" vertex="1" parent="WIyWlLk6GJQsqaUBKTNV-1">
          <mxGeometry x="-690" y="1601" width="360" height="80" as="geometry" />
        </mxCell>
        <mxCell id="bAVuv0y_ngJYr-Cw_Y14-148" value="&lt;b&gt;&lt;font style=&quot;font-size: 22px;&quot;&gt;Action: C&lt;/font&gt;&lt;/b&gt;&lt;span style=&quot;background-color: transparent; color: light-dark(rgb(0, 0, 0), rgb(255, 255, 255)); font-size: 22px;&quot;&gt;reate pull request&lt;/span&gt;" style="shape=step;perimeter=stepPerimeter;whiteSpace=wrap;html=1;fixedSize=1;fillColor=#d5e8d4;gradientColor=light-dark(#58833f, #295a0d);strokeColor=#82b366;fontFamily=Garamond;fontSize=17;size=30;align=center;fontStyle=0" vertex="1" parent="WIyWlLk6GJQsqaUBKTNV-1">
          <mxGeometry x="-170" y="1243" width="360" height="80" as="geometry" />
        </mxCell>
      </root>
    </mxGraphModel>
  </diagram>
</mxfile>
